<svg width="683" height="507" viewBox="0 0 683 507" fill="none" xmlns="http://www.w3.org/2000/svg">
<path d="M13.6 2.26671C7.86662 5.06671 3.06662 10.9334 1.06662 17.4667C-1.86671 27.6 3.46662 39.3334 14 45.0667C17.7333 47.2 42.3999 47.3334 340 47.3334C517.067 47.3334 663.6 46.9334 665.6 46.4C674 44 682.667 32.4 682.667 23.3334C682.667 17.2 678.133 8.80004 672.533 4.53337L667.6 0.666705L342.8 0.400038C45.8666 0.133372 17.6 0.266705 13.6 2.26671Z" fill="white"/>
<path d="M13.5999 232.133C-2.80005 240.267 -4.13339 262.933 11.0666 273.067L16.5333 276.667H341.333H666.133L671.6 273.067C686.933 262.933 685.467 240.133 669.067 232.133L663.2 229.333H341.2H19.3333L13.5999 232.133Z" fill="white"/>
<path d="M19.9999 459.867C10.3999 461.867 3.5999 468.133 1.1999 477.6C-1.73343 488.267 3.73324 499.733 13.8666 504.533C17.9999 506.533 46.3999 506.667 341.333 506.667C698.133 506.667 669.067 507.333 676.667 498.4C686.667 486.533 682.933 469.467 668.667 461.6C664.933 459.467 640.133 459.333 344.667 459.2C168.667 459.067 22.5332 459.333 19.9999 459.867Z" fill="white"/>
</svg>
